<svg width="800" height="800" viewBox="0 0 800 800" fill="none" xmlns="http://www.w3.org/2000/svg">
<g clip-path="url(#clip0_1275_5024)">
<path d="M800 0H0V800H800V0Z" fill="#EFF1F3"/>
<g clip-path="url(#clip1_1275_5024)">
<path d="M399.5 671C569.88 671 708 532.88 708 362.5C708 192.12 569.88 54 399.5 54C229.12 54 91 192.12 91 362.5C91 532.88 229.12 671 399.5 671Z" fill="#F2F2F2"/>
<path d="M400.691 401.807C466.475 401.807 519.803 348.479 519.803 282.695C519.803 216.911 466.475 163.583 400.691 163.583C334.907 163.583 281.579 216.911 281.579 282.695C281.579 348.479 334.907 401.807 400.691 401.807Z" fill="#CCCCCC"/>
<mask id="mask0_1275_5024" style="mask-type:alpha" maskUnits="userSpaceOnUse" x="91" y="54" width="617" height="617">
<path d="M708 362.5C708 532.88 569.88 671 399.5 671C229.12 671 91 532.88 91 362.5C91 192.12 229.12 54 399.5 54C569.88 54 708 192.12 708 362.5Z" fill="#F2F2F2"/>
</mask>
<g mask="url(#mask0_1275_5024)">
<path d="M593.652 630.502C593.652 737.071 507.26 823.463 400.691 823.463C294.121 823.463 207.729 737.071 207.729 630.502C207.729 523.932 294.121 437.541 400.691 437.541C507.26 437.541 593.652 523.932 593.652 630.502Z" fill="#CCCCCC"/>
</g>
</g>
</g>
<defs>
<clipPath id="clip0_1275_5024">
<rect width="800" height="800" fill="white"/>
</clipPath>
<clipPath id="clip1_1275_5024">
<rect width="617" height="617" fill="white" transform="translate(91 54)"/>
</clipPath>
</defs>
</svg>
