<svg width="134" height="39" viewBox="0 0 134 39" fill="none" xmlns="http://www.w3.org/2000/svg">
<g clip-path="url(#clip0_1299_5025)">
<path fill-rule="evenodd" clip-rule="evenodd" d="M10.7873 30.4562C14.9613 30.4562 18.5816 28.0484 20.3752 24.5258H29.343C27.1604 32.8596 19.6799 39 10.7873 39C10.7708 39 10.7542 39 10.7377 38.9999L10.7873 39H35.9984C37.4069 39 38.7626 38.7496 40.0654 38.2489C41.3683 37.7483 42.5391 37.0151 43.5778 36.0495C44.6166 37.0151 45.7786 37.7483 47.0638 38.2489C48.3667 38.7496 49.7223 39 51.1308 39C52.6978 39 54.1679 38.705 55.5411 38.1149C56.932 37.5068 58.1381 36.6843 59.1592 35.6472C60.198 34.5922 61.0078 33.3672 61.5888 31.9725C62.1875 30.5598 62.4868 29.0578 62.4868 27.4663V0H54.9338V27.4663C54.9338 28.0027 54.8281 28.5124 54.6169 28.9952C54.4232 29.4601 54.1502 29.8714 53.7981 30.229C53.4636 30.5688 53.0675 30.837 52.6097 31.0337C52.152 31.2304 51.659 31.3288 51.1308 31.3288C50.6026 31.3288 50.1097 31.2304 49.6519 31.0337C49.1941 30.837 48.7893 30.5688 48.4371 30.229C48.1026 29.8714 47.8385 29.4601 47.6448 28.9952C47.4511 28.5124 47.3543 28.0027 47.3543 27.4663V0H39.7749V27.4663C39.7749 28.0027 39.678 28.5124 39.4844 28.9952C39.2908 29.4601 39.0178 29.8714 38.6657 30.229C38.3312 30.5688 37.9351 30.837 37.4773 31.0337C37.0196 31.2304 36.5266 31.3288 35.9984 31.3288C35.4702 31.3288 34.9773 31.2304 34.5195 31.0337C34.0617 30.837 33.6569 30.5688 33.3047 30.229C32.9701 29.8714 32.7061 29.4601 32.5124 28.9952C32.3187 28.5124 32.222 28.0027 32.222 27.4663V0H10.7873H10.6883C10.7214 -0.000170458 10.7541 0 10.7873 0C19.6799 0 27.1604 6.14035 29.343 14.4742H20.3752C18.5816 10.9516 14.9613 8.54381 10.7873 8.54381C4.82964 8.54381 0 13.4491 0 19.5C0 25.5509 4.82964 30.4562 10.7873 30.4562Z" fill="#BF1E2E"/>
<path fill-rule="evenodd" clip-rule="evenodd" d="M79.6321 14.2898L79.7701 14.1693L77.9356 11.1047L77.7425 11.3164C77.3233 11.776 76.828 12.1307 76.255 12.3812C75.6812 12.625 75.0812 12.7469 74.4532 12.7469C73.8176 12.7469 73.2253 12.6247 72.6738 12.3819C72.1181 12.137 71.6345 11.8047 71.2211 11.385C70.8075 10.9648 70.4804 10.4769 70.2395 9.91976C70.0003 9.35955 69.8802 8.76154 69.8802 8.12355C69.8802 7.48541 70.0003 6.88727 70.2396 6.32695L70.24 6.32608C70.481 5.75491 70.8077 5.26459 71.2199 4.85275L71.2205 4.85212L71.2211 4.8515C71.6345 4.43171 72.1181 4.09941 72.6738 3.8546C73.2253 3.61169 73.8176 3.48954 74.4532 3.48954C75.0807 3.48954 75.6804 3.61479 76.2541 3.86549L76.2551 3.86592L76.2561 3.86633C76.8286 4.10974 77.3235 4.46062 77.7425 4.91999L77.9356 5.13169L79.7696 2.06807L79.633 1.94746C78.915 1.313 78.1101 0.831177 77.2195 0.502793C76.3297 0.167619 75.4072 0 74.4532 0C73.7219 0 73.0145 0.0983081 72.3315 0.295381C71.6574 0.484817 71.0222 0.758158 70.4264 1.11537C69.8379 1.46532 69.2996 1.88813 68.812 2.38338C68.3243 2.87872 67.9047 3.42883 67.5532 4.03334L67.5528 4.03405C67.2081 4.63218 66.9393 5.277 66.746 5.96786L66.7457 5.96889L66.7454 5.96992C66.5585 6.66319 66.4654 7.38127 66.4654 8.12355C66.4654 8.86582 66.5585 9.5839 66.7454 10.2772L66.7457 10.2785L66.7461 10.2798C66.9394 10.9633 67.2081 11.6076 67.5522 12.212L67.553 12.2134L67.5538 12.2147C67.9052 12.8119 68.3247 13.3581 68.812 13.853C69.2994 14.3481 69.8372 14.7741 70.4251 15.1309L70.4264 15.1317L70.4277 15.1325C71.0233 15.4823 71.658 15.7518 72.3315 15.941C73.0145 16.1382 73.722 16.2365 74.4532 16.2365C75.4075 16.2365 76.3301 16.0687 77.2202 15.7334C78.11 15.3982 78.9143 14.9168 79.6321 14.2898ZM94.1198 12.213L94.1203 12.212C94.4647 11.6072 94.7301 10.9625 94.9164 10.2784C95.1104 9.58481 95.2072 8.86628 95.2072 8.12355C95.2072 7.3809 95.1104 6.66247 94.9164 5.9689C94.7301 5.27767 94.4647 4.63249 94.1198 4.03405C93.7752 3.43613 93.3587 2.88937 92.871 2.39402C92.3833 1.89867 91.845 1.47579 91.2563 1.12578C90.6671 0.775485 90.0319 0.505847 89.3513 0.316577C88.6684 0.119561 87.961 0.0212803 87.2299 0.0212803C86.4985 0.0212803 85.7911 0.119588 85.1081 0.316661C84.4347 0.505928 83.7999 0.775429 83.2043 1.12521L83.2034 1.12578C82.6147 1.47579 82.0764 1.89867 81.5886 2.39402C81.1013 2.88898 80.7807 3.43518 80.4294 4.03235L80.4289 4.03319L80.4284 4.03405C80.0837 4.63218 79.7159 5.277 79.5226 5.96786L79.5223 5.96889L79.522 5.96992C79.3351 6.66319 79.242 7.38127 79.242 8.12355C79.242 8.86582 79.3351 9.5839 79.522 10.2772L79.5224 10.2785L79.5227 10.2798C79.7161 10.9633 80.0837 11.6076 80.4279 12.212L80.4286 12.2134L80.4294 12.2147C80.7807 12.8119 81.1013 13.3581 81.5886 13.853C82.076 14.3481 82.6138 14.7741 83.2017 15.1309L83.203 15.1317L83.2043 15.1325C83.7999 15.4823 84.4347 15.7518 85.1081 15.941C85.7911 16.1382 86.4986 16.2365 87.2299 16.2365C87.961 16.2365 88.6684 16.1382 89.3513 15.9411C90.0319 15.7519 90.6671 15.4823 91.2563 15.1319L91.2572 15.1315L91.258 15.1309C91.8459 14.7741 92.3837 14.3481 92.871 13.853C93.3587 13.3577 93.7752 12.811 94.1198 12.213ZM91.4326 6.32608L91.4329 6.32695C91.6722 6.88727 91.7924 7.48541 91.7924 8.12355C91.7924 8.76154 91.6723 9.35955 91.4331 9.91976C91.1923 10.4769 90.8651 10.9648 90.4515 11.385L90.4508 11.3856L90.4502 11.3862C90.0447 11.8048 89.562 12.1367 88.9996 12.3815L88.9988 12.3819C88.447 12.6248 87.8582 12.7469 87.2299 12.7469C86.5942 12.7469 86.0019 12.6247 85.4504 12.3819C84.8948 12.137 84.4111 11.8047 83.9977 11.385C83.5842 10.9648 83.257 10.4769 83.0161 9.91976C82.7769 9.35955 82.6568 8.76154 82.6568 8.12355C82.6568 7.48541 82.777 6.88727 83.0162 6.32695L83.0166 6.32608C83.2576 5.75491 83.5843 5.26459 83.9965 4.85275L83.9971 4.85212L83.9977 4.8515C84.4111 4.43171 84.8948 4.09941 85.4504 3.8546C86.0019 3.61169 86.5942 3.48954 87.2299 3.48954C87.8582 3.48954 88.447 3.61157 88.9988 3.8546L88.9996 3.85497C89.562 4.09975 90.0447 4.43166 90.4502 4.85024L90.4514 4.85151L90.4527 4.85275C90.8649 5.26459 91.1916 5.75491 91.4326 6.32608ZM107.738 12.0229L107.739 12.0219C108.077 11.4378 108.335 10.8138 108.515 10.1504C108.702 9.47806 108.795 8.78095 108.795 8.0597C108.795 7.3387 108.702 6.64516 108.515 5.97979C108.336 5.30954 108.077 4.6853 107.738 4.10784C107.402 3.52493 106.999 2.99624 106.533 2.52219C106.066 2.04073 105.545 1.62842 104.97 1.28556C104.395 0.942341 103.778 0.679698 103.118 0.497446C102.462 0.30746 101.78 0.212803 101.069 0.212803H96.329V15.9066H101.069C101.779 15.9066 102.461 15.8156 103.117 15.6328L103.118 15.6326V15.6324C103.778 15.4431 104.395 15.1769 104.97 14.8339C105.544 14.4912 106.066 14.0826 106.532 13.6084L106.533 13.6078L106.534 13.6072C106.999 13.1266 107.401 12.5984 107.738 12.0229ZM105.021 6.3677V6.36879V6.36988C105.246 6.89444 105.359 7.45695 105.359 8.0597C105.359 8.66245 105.246 9.22889 105.021 9.76111V9.76234C104.8 10.2902 104.494 10.7525 104.102 11.1509C103.717 11.5417 103.262 11.8527 102.735 12.0835C102.218 12.3054 101.664 12.4171 101.069 12.4171H99.7854V3.70235H101.069C101.663 3.70235 102.217 3.81731 102.733 4.04596L102.734 4.04636C103.261 4.27682 103.716 4.59092 104.101 4.9885L104.102 4.98983L104.103 4.99114C104.495 5.38196 104.8 5.8402 105.021 6.3677ZM109.938 15.9066H120.665V12.4171H113.373V9.8098H118.308V6.32025H113.373V3.70235H120.665V0.212803H109.938V15.9066ZM79.0005 38.6316L79.0017 38.6311C79.5772 38.3796 80.0786 38.0381 80.5038 37.6062C80.9354 37.1678 81.272 36.6587 81.5131 36.0803C81.7624 35.4919 81.8867 34.8666 81.8867 34.2068V23.0934H78.4614V34.2068C78.4614 34.3897 78.4256 34.5615 78.3542 34.7248L78.3534 34.7266L78.3526 34.7284C78.2866 34.8869 78.194 35.0266 78.0737 35.1486C77.9616 35.2626 77.8279 35.3536 77.6704 35.4212C77.5169 35.4873 77.35 35.5211 77.1674 35.5211C76.9848 35.5211 76.8178 35.4873 76.6643 35.4212C76.5077 35.354 76.3702 35.2631 76.2506 35.1486C76.1381 35.0275 76.0489 34.8883 75.9827 34.7297C75.917 34.5655 75.8838 34.3918 75.8838 34.2068V23.0934H72.4481V34.2068C72.4481 34.3918 72.4149 34.5656 72.3492 34.7298C72.2832 34.8877 72.1908 35.0269 72.0709 35.1486C71.9587 35.2626 71.8251 35.3536 71.6676 35.4212C71.5142 35.4873 71.3472 35.5211 71.1645 35.5211C70.9819 35.5211 70.815 35.4873 70.6615 35.4212C70.5048 35.354 70.3673 35.2631 70.2478 35.1486C70.1354 35.0275 70.0461 34.8883 69.9799 34.7297C69.9142 34.5655 69.881 34.3918 69.881 34.2068V23.0934H66.4453V34.2068C66.4453 34.8658 66.5658 35.4903 66.8075 36.0783L66.8082 36.0799L66.8088 36.0814C67.0565 36.6585 67.3923 37.1668 67.8163 37.6048L67.8176 37.6062L67.819 37.6075C68.2503 38.0381 68.7507 38.3792 69.3188 38.6307L69.3204 38.6314L69.3219 38.632C69.9008 38.8777 70.5157 39 71.1645 39C71.7489 39 72.3124 38.8961 72.8538 38.688C73.3365 38.5024 73.7759 38.2401 74.1711 37.9018C74.5653 38.2397 75.0008 38.502 75.4772 38.6876L75.4781 38.688C76.0195 38.8961 76.583 39 77.1674 39C77.8162 39 78.4279 38.8777 79.0005 38.6316ZM83.7208 38.7872H94.4479V35.2976H87.1566V32.6903H92.0909V29.2008H87.1566V26.5829H94.4479V23.0934H83.7208V38.7872ZM103.421 23.0934H95.6955V38.7872H103.421C104.072 38.7872 104.683 38.661 105.256 38.4073C105.825 38.1556 106.323 37.8141 106.748 37.3827C107.179 36.9446 107.519 36.4357 107.767 35.858C108.016 35.276 108.141 34.6539 108.141 33.994C108.141 33.6911 108.1 33.3826 108.019 33.0691C107.945 32.7479 107.835 32.4414 107.688 32.1496C107.54 31.8582 107.363 31.5919 107.156 31.3515C107.023 31.1911 106.876 31.0511 106.719 30.9322C106.87 30.811 107.013 30.6735 107.144 30.5199C107.352 30.2791 107.529 30.0123 107.677 29.7203C107.823 29.4297 107.937 29.1277 108.018 28.8143C108.1 28.4999 108.141 28.1905 108.141 27.8866C108.141 27.2267 108.016 26.6046 107.767 26.0225C107.519 25.4451 107.179 24.9398 106.748 24.5085C106.323 24.0701 105.825 23.7251 105.256 23.4733C104.683 23.2196 104.072 23.0934 103.421 23.0934ZM104.324 33.0695L104.328 33.0735L104.332 33.0773C104.45 33.191 104.541 33.3256 104.607 33.4831C104.671 33.639 104.705 33.8086 104.705 33.994C104.705 34.1795 104.671 34.349 104.607 34.5049C104.541 34.6635 104.448 34.8032 104.328 34.9252C104.216 35.0392 104.081 35.1302 103.924 35.1978C103.771 35.2638 103.604 35.2976 103.421 35.2976H99.1312V32.6903H103.421C103.604 32.6903 103.771 32.7242 103.924 32.7903C104.08 32.8569 104.212 32.9498 104.324 33.0695ZM104.324 26.962L104.328 26.9661L104.332 26.9699C104.45 27.0836 104.541 27.2181 104.607 27.3756C104.671 27.5316 104.705 27.7011 104.705 27.8866C104.705 28.0716 104.671 28.2452 104.606 28.4095C104.54 28.5675 104.448 28.7067 104.328 28.8284C104.216 28.9423 104.081 29.0334 103.924 29.101C103.771 29.167 103.604 29.2008 103.421 29.2008H99.1312V26.5829H103.421C103.604 26.5829 103.771 26.6168 103.924 26.6827C104.08 26.7494 104.212 26.8424 104.324 26.962ZM109.556 38.7872H120.283V35.2976H112.991V32.6903H117.926V29.2008H112.991V26.5829H120.283V23.0934H109.556V38.7872ZM130.316 30.5237V30.5246V30.5255C130.173 30.8692 129.975 31.1683 129.723 31.4247C129.47 31.6813 129.175 31.8858 128.836 32.0383C128.501 32.1821 128.142 32.2546 127.758 32.2546H124.966V26.5829H127.758C128.142 26.5829 128.499 26.6586 128.835 26.8091L128.836 26.8098L128.838 26.8104C129.176 26.9558 129.47 27.1566 129.723 27.4129C129.975 27.6685 130.172 27.9705 130.315 28.3212L130.316 28.3235L130.317 28.3259C130.466 28.6659 130.54 29.0295 130.54 29.4188C130.54 29.8081 130.466 30.1757 130.316 30.5237ZM121.53 38.7872H124.966V35.7321L127.974 35.713L129.283 38.7872H132.943L131.221 34.6625C131.609 34.3986 131.963 34.0943 132.283 33.7499C132.644 33.3607 132.949 32.9343 133.195 32.4708C133.448 32.0083 133.64 31.5201 133.769 31.0065C133.907 30.4915 133.976 29.962 133.976 29.4188C133.976 28.8396 133.9 28.2808 133.748 27.7433C133.603 27.2075 133.393 26.7039 133.118 26.2333C132.851 25.7634 132.525 25.3373 132.142 24.9556C131.766 24.5667 131.348 24.2361 130.884 23.9643C130.428 23.6849 129.936 23.4719 129.409 23.325C128.879 23.1704 128.329 23.0934 127.758 23.0934H121.53V38.7872Z" fill="white"/>
<path d="M133.778 2.91495C133.778 4.52483 132.493 5.8299 130.908 5.8299C129.323 5.8299 128.038 4.52483 128.038 2.91495C128.038 1.30506 129.323 0 130.908 0C132.493 0 133.778 1.30506 133.778 2.91495Z" fill="#BF1E2E"/>
</g>
<defs>
<clipPath id="clip0_1299_5025">
<rect width="134" height="39" fill="white"/>
</clipPath>
</defs>
</svg>
